<?xml version="1.0" encoding="utf-8"?>
<!-- Generator: Adobe Illustrator 25.2.0, SVG Export Plug-In . SVG Version: 6.00 Build 0)  -->
<svg version="1.1" id="Layer_1" xmlns="http://www.w3.org/2000/svg" xmlns:xlink="http://www.w3.org/1999/xlink" x="0px" y="0px"
	 viewBox="0 0 16 16" style="enable-background:new 0 0 16 16;" xml:space="preserve">
<g>
	<path d="M0.2,8.2c0-0.4,0.3-0.7,0.7-0.7c0.4,0,0.7,0.3,0.7,0.7c0,0.4-0.3,0.7-0.7,0.7C0.6,8.9,0.2,8.6,0.2,8.2z"/>
	<path d="M6.3,9.9c-0.2,0.1-0.5,0.2-1,0.2c-1,0-1.7-0.7-1.7-1.7c0-1,0.7-1.8,1.8-1.8c0.4,0,0.7,0.1,0.8,0.2L6.2,7.3
		C6,7.2,5.8,7.1,5.5,7.1c-0.8,0-1.2,0.6-1.2,1.3c0,0.8,0.5,1.2,1.2,1.2c0.3,0,0.6-0.1,0.7-0.2L6.3,9.9z"/>
	<path d="M10,8.3c0,1.2-0.9,1.8-1.7,1.8c-0.9,0-1.6-0.7-1.6-1.7c0-1.1,0.7-1.8,1.7-1.8C9.3,6.6,10,7.3,10,8.3z M7.3,8.4
		c0,0.7,0.4,1.3,1,1.3c0.6,0,1-0.5,1-1.3c0-0.6-0.3-1.3-1-1.3C7.6,7.1,7.3,7.7,7.3,8.4z"/>
	<path d="M10.8,7.6c0-0.3,0-0.6,0-0.9h0.5l0,0.5h0c0.2-0.3,0.5-0.6,1-0.6c0.5,0,0.8,0.3,0.9,0.7h0c0.1-0.2,0.2-0.3,0.4-0.4
		c0.2-0.2,0.4-0.2,0.7-0.2c0.4,0,1.1,0.3,1.1,1.4v2h-0.6V8.1c0-0.6-0.2-1-0.7-1c-0.3,0-0.6,0.3-0.7,0.6c0,0.1,0,0.2,0,0.3V10h-0.6V8
		c0-0.5-0.2-0.9-0.7-0.9c-0.4,0-0.7,0.3-0.8,0.6c0,0.1,0,0.2,0,0.3v2h-0.6V7.6z"/>
</g>
</svg>
