<?xml version="1.0" encoding="utf-8"?>
<!-- Generator: Adobe Illustrator 25.2.0, SVG Export Plug-In . SVG Version: 6.00 Build 0)  -->
<svg version="1.1" id="Layer_1" xmlns="http://www.w3.org/2000/svg" xmlns:xlink="http://www.w3.org/1999/xlink" x="0px" y="0px"
	 viewBox="0 0 24.2 24.1" style="enable-background:new 0 0 24.2 24.1;" xml:space="preserve">
<style type="text/css">
	.st0{fill:none;stroke:#8CA8D8;stroke-width:0.75;stroke-miterlimit:10;}
	.st1{fill:none;stroke:#8CA8D8;stroke-width:0.75;stroke-linecap:round;stroke-miterlimit:10;}
	.st2{fill:none;stroke:#8CA8D8;stroke-width:0.5;stroke-linecap:round;stroke-miterlimit:10;}
</style>
<polygon class="st0" points="12.1,1.6 13.5,0.5 14.7,1.9 16.4,1.2 17.1,2.9 18.9,2.6 19.2,4.4 21,4.6 20.9,6.4 22.6,7.1 22,8.8 
	23.5,9.8 22.5,11.4 23.7,12.8 22.4,14 23.1,15.6 21.5,16.5 21.9,18.2 20.1,18.7 20,20.5 18.2,20.5 17.7,22.2 15.9,21.7 15,23.3 
	13.4,22.4 12.1,23.6 10.8,22.4 9.2,23.3 8.3,21.7 6.5,22.2 6,20.5 4.2,20.5 4,18.7 2.3,18.2 2.6,16.5 1.1,15.6 1.8,14 0.5,12.8 
	1.7,11.4 0.7,9.8 2.2,8.8 1.6,7.1 3.3,6.4 3.2,4.6 4.9,4.4 5.3,2.6 7.1,2.9 7.8,1.2 9.5,1.9 10.6,0.5 "/>
<line class="st1" x1="7.3" y1="16.8" x2="16.8" y2="7.3"/>
<circle class="st2" cx="8.3" cy="8.3" r="1.8"/>
<circle class="st2" cx="15.8" cy="15.8" r="1.8"/>
</svg>
